{"title":"La.Grande.Bellezza.[The.Great.Beauty].2013.DVDRip.XviD.AC3.HORiZ","uid":9036372,"size":1884399127,"categoryP":"video","categoryS":"movies","magnet":"?xt=urn:btih:c5d83b78b1792cc84fed08f23a6b4f0055a748a8&amp;dn=La.Grande.Bellezza.%5BThe.Great.Beauty%5D.2013.DVDRip.XviD.AC3.HORiZ&amp;tr=udp%3A%2F%2Ftracker.openbittorrent.com%3A80&amp;tr=udp%3A%2F%2Fopen.demonii.com%3A1337&amp;tr=udp%3A%2F%2Ftracker.coppersurfer.tk%3A6969&amp;tr=udp%3A%2F%2Fexodus.desync.com%3A6969","seeders":455,"leechers":6,"uploader":"lletaif","files":2,"time":1381514219,"description":"Title:\nLa Grande Bellezza Aka The Great Beauty\n\nCountry:\nItaly, 2013\n\nLanguage:\nItalian\n\nSubtitle:\nItalian\n\nIMDB:  &lt;a href=&quot;\nhttp://www.imdb.com/title/tt2358891&quot; rel=&quot;nofollow&quot; target=&quot;_NEW&quot;&gt;\nhttp://www.imdb.com/title/tt2358891&lt;/a&gt;\n\nTrivia:\nItaly's official submission to the Best Foreign Language Film category for the 86th Academy Awards\n\nOfficial Selection Cannes Film Festival 2013\n\nMedia Info:\n\nGeneral\nComplete name                            : La.Grande.Bellezza.[The.Great.Beauty].2013.DVDRip.XviD.AC3.HORiZON-ArtSubs\nFormat                                   : AVI\nFormat/Info                              : Audio Video Interleave\nFile size                                : 1.75 GiB\nDuration                                 : 2h 15mn\nOverall bit rate                         : 1 860 Kbps\nWriting application                      : FairUse Wizard - http://fairusewizard.com\nWriting library                          : The best and REALLY easy backup tool\n\nVideo\nID                                       : 0\nFormat                                   : MPEG-4 Visual\nFormat profile                           : Advanced Simple@L5\nFormat settings, BVOP                    : 1\nFormat settings, QPel                    : No\nFormat settings, GMC                     : No warppoints\nFormat settings, Matrix                  : Default (MPEG)\nMuxing mode                              : Packed bitstream\nCodec ID                                 : XVID\nCodec ID/Hint                            : XviD\nDuration                                 : 2h 15mn\nBit rate                                 : 1 467 Kbps\nWidth                                    : 688 pixels\nHeight                                   : 288 pixels\nDisplay aspect ratio                     : 2.40:1\nFrame rate                               : 25.000 fps\nColor space                              : YUV\nChroma subsampling                       : 4:2:0\nBit depth                                : 8 bits\nScan type                                : Progressive\nCompression mode                         : Lossy\nBits/(Pixel*Frame)                       : 0.296\nStream size                              : 1.38 GiB (79%)\nWriting library                          : XviD 1.2.0.dev47 (UTC 2006-11-01)\n\nAudio\nID                                       : 1\nFormat                                   : AC-3\nFormat/Info                              : Audio Coding 3\nMode extension                           : CM (complete main)\nFormat settings, Endianness              : Big\nCodec ID                                 : 2000\nDuration                                 : 2h 15mn\nBit rate mode                            : Constant\nBit rate                                 : 384 Kbps\nChannel count                            : 6 channels\nChannel positions                        : Front: L C R, Side: L R, LFE\nSampling rate                            : 48.0 KHz\nBit depth                                : 16 bits\nCompression mode                         : Lossy\nStream size                              : 371 MiB (21%)\nAlignment                                : Split accross interleaves\nInterleave, duration                     : 40 ms (1.00 video frame)\nInterleave, preload duration             : 500 ms\n","torrent":{"xt":"urn:btih:c5d83b78b1792cc84fed08f23a6b4f0055a748a8","amp;dn":"La.Grande.Bellezza.%5BThe.Great.Beauty%5D.2013.DVDRip.XviD.AC3.HORiZ","amp;tr":["udp%3A%2F%2Ftracker.openbittorrent.com%3A80","udp%3A%2F%2Fopen.demonii.com%3A1337","udp%3A%2F%2Ftracker.coppersurfer.tk%3A6969","udp%3A%2F%2Fexodus.desync.com%3A6969"],"infoHash":"c5d83b78b1792cc84fed08f23a6b4f0055a748a8","infoHashBuffer":{"type":"Buffer","data":[197,216,59,120,177,121,44,200,79,237,8,242,58,107,79,0,85,167,72,168]},"announce":[],"urlList":[]}}